<svg xmlns="http://www.w3.org/2000/svg" width="32" height="32" viewBox="0 0 1000 1000">
<path d="M 160 40 C 226 40 292 40 360 40 C 360 66.398438 360 92.800781 360 120 C 379.800781 120 399.601562 120 420 120 C 420 133.199219 420 146.398438 420 160 C 400.199219 160 380.398438 160 360 160 C 360 173.199219 360 186.398438 360 200 C 373.199219 200 386.398438 200 400 200 C 400 213.199219 400 226.398438 400 240 C 386.800781 240 373.601562 240 360 240 C 360 253.199219 360 266.398438 360 280 C 379.800781 280 399.601562 280 420 280 C 420 293.199219 420 306.398438 420 320 C 400.199219 320 380.398438 320 360 320 C 360 333.199219 360 346.398438 360 360 C 373.199219 360 386.398438 360 400 360 C 400 373.199219 400 386.398438 400 400 C 386.800781 400 373.601562 400 360 400 C 360 413.199219 360 426.398438 360 440 C 379.800781 440 399.601562 440 420 440 C 420 453.199219 420 466.398438 420 480 C 400.199219 480 380.398438 480 360 480 C 360 513.152344 363.628906 533.617188 387.421875 557.460938 C 401.351562 568.914062 415.515625 580.089844 429.921875 590.9375 C 464.621094 623.882812 478.328125 656.875 484.335938 704.023438 C 484.46875 825.269531 484.46875 825.269531 440 880 C 384.105469 935.636719 342.539062 962.875 261.875 963.75 C 188.339844 962.378906 153.300781 953.4375 100.664062 900.585938 C 42.351562 836.878906 35.851562 791.367188 36.5625 705.234375 C 41.332031 656.363281 56.195312 625.140625 90 590 C 100.082031 583.746094 110.160156 577.492188 120.546875 571.050781 C 141.855469 553.257812 149.171875 543.464844 155.6875 516.191406 C 157.914062 485.910156 158.304688 456.105469 158.046875 425.742188 C 158.183594 414.714844 158.320312 403.6875 158.460938 392.328125 C 158.835938 357.171875 158.796875 322.03125 158.75 286.875 C 158.929688 263.015625 159.140625 239.152344 159.375 215.292969 C 159.894531 156.859375 160.042969 98.433594 160 40 Z M 200 80 C 200 245 200 410 200 580 C 183.5 586.601562 167 593.199219 150 600 C 114.519531 632.167969 92.246094 666.539062 87.617188 714.882812 C 86.023438 775.464844 87.582031 812.996094 130 860 C 180.609375 905.671875 218.671875 913.074219 285 912.109375 C 335.152344 907.878906 365.886719 886.816406 398.125 850 C 435.542969 798.6875 435.1875 751.472656 430 690 C 412.125 637.367188 383.90625 611.761719 340 580 C 333.398438 580 326.800781 580 320 580 C 320 415 320 250 320 80 C 280.398438 80 240.800781 80 200 80 Z M 200 80 " fill="#2f80ed"/>
<path d="M 240 280 C 253.199219 280 266.398438 280 280 280 C 280 398.800781 280 517.601562 280 640 C 293.199219 643.300781 306.398438 646.601562 320 650 C 342.5 664.375 342.5 664.375 360 690 C 369.195312 739.933594 367.554688 777.410156 341.25 821.25 C 297.050781 847.769531 260.261719 849.886719 210 840 C 178.75 821.25 178.75 821.25 160 790 C 153.15625 755.21875 152.769531 724.738281 160 690 C 183.125 658.75 183.125 658.75 210 640 C 219.898438 640 229.800781 640 240 640 C 240 521.199219 240 402.398438 240 280 Z M 240 280 " fill="#2f80ed"/>
<path d="M 870 540 C 910.46875 553.488281 915.582031 572.074219 936.25 608.75 C 942.359375 619.449219 948.46875 630.148438 954.765625 641.171875 C 981.023438 690.855469 988.152344 734.578125 980 790 C 961.25 820.625 961.25 820.625 930 840 C 879.492188 850.019531 842.800781 847.9375 798.75 820.625 C 772.675781 778.039062 769.507812 748.667969 780 700 C 803.199219 642.292969 831.363281 588.847656 870 540 Z M 870 630 C 843.363281 676.851562 822.058594 714.421875 830 770 C 848.851562 793.15625 848.851562 793.15625 880 792.5 C 911.148438 793.15625 911.148438 793.15625 930 770 C 937.941406 714.421875 916.636719 676.851562 890 630 C 883.398438 630 876.800781 630 870 630 Z M 870 630 " fill="#2f80ed"/>
<path d="M 680 290 C 717.726562 302.574219 721.75 314.941406 741.25 348.75 C 746.433594 357.59375 751.613281 366.4375 756.953125 375.546875 C 780.230469 419.175781 788.183594 461.089844 780 510 C 760.109375 539.839844 746.148438 556.027344 710.625 564.765625 C 671.394531 567.589844 653.289062 562.191406 620 540 C 599.5 509.246094 592.71875 489.578125 595.039062 452.539062 C 608.382812 391.917969 642.167969 338.375 680 290 Z M 680 390 C 651.707031 426.996094 645.804688 453.871094 650 500 C 661.183594 513.441406 661.183594 513.441406 690 511.25 C 718.816406 513.441406 718.816406 513.441406 730 500 C 734.195312 453.871094 728.292969 426.996094 700 390 C 693.398438 390 686.800781 390 680 390 Z M 680 390 " fill="#2f80ed"/>
<path d="M 870 40 C 915.863281 55.289062 925.945312 89.238281 947.539062 130.703125 C 965.136719 172.074219 967.773438 195.703125 960 240 C 945 265 945 265 920 280 C 879.789062 287.910156 850.359375 286.214844 815 265 C 793.414062 229.019531 790.949219 200.027344 800 160 C 840.800781 69.199219 840.800781 69.199219 870 40 Z M 870 140 C 848.480469 172.277344 847.992188 182.839844 850 220 C 866.5625 223.820312 883.246094 227.140625 900 230 C 903.300781 226.699219 906.601562 223.398438 910 220 C 907.128906 196.605469 903.804688 173.261719 900 150 C 890.101562 146.699219 880.199219 143.398438 870 140 Z M 870 140 " fill="#2f80ed"/>
</svg>